<svg width="252" height="58" viewBox="0 0 252 58" fill="none" xmlns="http://www.w3.org/2000/svg">
<rect width="57.2554" height="57.2554" fill="#F6F1EB"/>
<path fill-rule="evenodd" clip-rule="evenodd" d="M30.6772 22.0903C30.7048 21.9822 30.743 21.8758 30.759 21.7659C30.8388 21.2093 30.9252 20.6531 30.9858 20.0943C31.1271 18.7863 31.321 17.4792 31.373 16.1671C31.4446 14.3815 31.5639 12.6066 31.9071 10.8512C32.0227 10.2594 32.161 9.66692 32.5413 9.17433C32.8857 8.72691 33.1371 8.69195 33.586 9.03654C34.0182 9.36841 34.3003 9.80902 34.3932 10.3477C34.5149 11.0528 34.6574 11.7576 34.7236 12.4686C34.861 13.933 34.9717 15.4003 35.0581 16.8688C35.1394 18.2637 35.1746 19.6614 35.2306 21.0577C35.2325 21.0967 35.2341 21.1355 35.2382 21.1743C35.3352 22.1759 35.4448 23.1758 35.5254 24.1785C35.5994 25.1056 35.6327 26.036 35.7083 26.9633C35.7203 27.1138 35.8363 27.2727 35.942 27.3967C36.7025 28.2915 36.9545 29.35 36.7261 30.4494C36.5754 31.1747 36.2225 31.8829 35.8429 32.5324C35.2538 33.5391 34.5845 34.5023 33.9141 35.4598C33.1632 36.5335 32.7759 37.6908 32.8 39.0088C32.8267 40.465 32.8381 41.9157 33.0753 43.3606C33.3043 44.756 33.4785 46.16 33.6549 47.5633C33.74 48.2355 33.7946 48.9129 33.8188 49.5891C33.8261 49.8011 33.7379 50.052 33.6106 50.2258C33.1012 50.9218 32.4239 51.416 31.582 51.6491C31.2082 51.7524 30.8107 51.7724 30.4252 51.8339C28.901 52.0773 27.3652 51.9713 25.8332 51.9878C25.7365 51.9883 25.6365 51.9701 25.543 51.9436C24.4682 51.638 23.3801 51.3711 22.3255 51.0088C21.508 50.7271 21.3903 50.538 21.5587 49.6247C21.8305 48.1567 22.2053 46.7084 22.5088 45.2459C22.8523 43.5919 23.1861 41.9364 23.1101 40.2305C23.0823 39.6194 22.9952 39.034 22.7043 38.4882C22.3932 37.9042 22.0847 37.3194 21.7731 36.7353C21.1622 35.5896 20.8812 34.3366 20.562 33.096C20.2459 31.867 20.2447 30.6017 20.1324 29.3498C20.0839 28.8091 20.0361 28.2672 20.0244 27.7254C20.0033 26.7361 20.0099 25.7459 20.0037 24.7564C20.0014 24.3342 20.0099 23.9115 19.9881 23.4904C19.9552 22.8532 19.8838 22.2176 19.8645 21.58C19.8594 21.4038 19.9403 21.1909 20.0531 21.0515C20.4184 20.6005 20.9216 20.3435 21.4613 20.134C21.9234 19.9547 22.3434 20.0386 22.7721 20.2116C22.7988 20.2225 22.8426 20.1921 22.9263 20.1658C22.8976 19.8312 22.8698 19.4857 22.8374 19.1406C22.7229 17.9232 22.5529 16.7078 22.5056 15.4879C22.4475 13.9934 22.4635 12.4942 22.5056 10.999C22.5235 10.3652 22.6526 9.72685 22.7971 9.10577C22.9166 8.59025 23.2489 8.35712 23.7022 8.33487C24.3639 8.30264 24.7182 8.48469 24.9385 9.0102C25.0435 9.25968 25.1219 9.5255 25.1703 9.79109C25.4137 11.1293 25.5938 12.4724 25.6515 13.836C25.6958 14.8807 25.8867 15.9188 25.9844 16.9621C26.1176 18.3929 26.2199 19.8264 26.3481 21.2572C26.3688 21.4894 26.4554 21.716 26.5119 21.9448C26.5638 21.94 26.6158 21.9357 26.6675 21.9309C26.6819 21.7119 26.7072 21.4926 26.709 21.2731C26.7166 20.437 26.6971 19.5999 26.7242 18.7643C26.7637 17.5419 26.8713 16.3213 26.8846 15.0991C26.9124 12.5528 26.8873 10.0063 27.0633 7.46318C27.1233 6.58923 27.4592 5.88416 28.2317 5.42516C28.7245 5.1321 29.1548 5.22449 29.4455 5.69802C29.5951 5.9425 29.7074 6.22239 29.7754 6.50092C30.2237 8.32261 30.3363 10.1824 30.3829 12.0479C30.4153 13.3103 30.4325 14.5729 30.462 15.8348C30.479 16.5535 30.5169 17.2715 30.5279 17.9902C30.5394 18.7461 30.5463 19.5027 30.5254 20.2582C30.5081 20.8665 30.462 21.4731 30.5369 22.0774C30.5846 22.0817 30.6311 22.086 30.6772 22.0903ZM27.2754 27.6854C26.4278 28.2228 25.5194 28.3678 24.6031 28.4273C23.8802 28.4743 23.1457 28.4854 22.4268 28.4137C21.6352 28.3344 21.0507 27.8639 20.6689 27.1779C20.5905 27.0364 20.5848 26.8401 20.5905 26.6707C20.6119 26.056 20.619 26.0562 20.3534 25.4134C20.3534 26.2472 20.3176 26.9915 20.3615 27.7311C20.4267 28.8318 20.5427 29.9298 20.6459 31.0278C20.7001 31.6067 20.7192 32.196 20.8497 32.7587C21.0776 33.7414 21.332 34.7239 21.6658 35.6752C21.9082 36.3665 22.2487 37.0361 22.6306 37.6651C23.2339 38.6585 23.5524 39.6902 23.5367 40.8629C23.5211 42.0358 23.3718 43.184 23.1507 44.3272C22.8564 45.8511 22.535 47.3692 22.2214 48.889C22.1706 49.1355 22.0867 49.3759 22.0431 49.6227C21.9923 49.9049 21.9691 50.1911 21.9339 50.4749C22.0454 50.5398 22.1058 50.5934 22.1763 50.614C23.2472 50.9275 24.3179 51.2421 25.3927 51.542C25.597 51.5987 25.8201 51.609 26.0342 51.6051C27.2515 51.5806 28.4718 51.5794 29.6867 51.502C30.5019 51.4505 31.3185 51.3565 32.0648 50.9332C32.5783 50.6424 33.0017 50.2615 33.297 49.7907C33.4608 49.5296 33.4477 49.1153 33.4091 48.7821C33.195 46.935 32.9758 45.0872 32.7051 43.2478C32.4859 41.7646 32.4108 40.2802 32.4046 38.7842C32.3981 37.4325 32.7848 36.2332 33.563 35.1295C34.2144 34.2058 34.8639 33.276 35.4356 32.3043C35.8177 31.6557 36.1228 30.9472 36.3542 30.2317C36.6825 29.2134 36.0927 27.7095 35.2171 27.0712C33.694 25.9618 32.0877 24.9877 30.3822 24.1755C29.6849 23.8432 28.9644 23.5674 28.1786 23.6248C27.7131 23.6591 27.2368 23.7445 26.7991 23.8988C26.0602 24.159 25.3431 24.4829 24.6242 24.7968C23.7624 25.1734 22.9038 25.5589 22.0527 25.9591C21.7724 26.0912 21.4942 26.2521 21.2594 26.4508C20.915 26.7416 20.9221 27.1318 21.215 27.4805C21.4976 27.8178 21.8871 27.9921 22.2983 28.0087C23.4736 28.0559 24.6587 28.131 25.8045 27.7667C26.1755 27.6487 26.5321 27.482 26.8844 27.3147C27.2272 27.1518 27.2899 27.1554 27.5006 27.4723C27.748 27.8439 27.9702 28.2346 28.2436 28.5864C29.097 29.6824 30.1104 30.5291 31.5995 30.6085C31.7426 30.6163 31.88 30.7302 32.0011 30.8635C31.5499 31.0719 31.1264 30.9731 30.711 30.8271C29.9553 30.5622 29.3182 30.1087 28.7518 29.5584C28.5568 29.3689 28.3914 29.1498 28.2078 28.9389C27.2945 29.4781 26.6806 30.2006 26.0257 30.8977C25.3571 31.6092 25.0566 32.5076 24.5684 33.3228C24.3926 32.9042 24.5321 32.5328 24.6651 32.1637C24.9353 31.4173 25.3978 30.7892 25.9605 30.2406C26.5588 29.6576 27.1922 29.1094 27.8494 28.5106C27.6846 28.2725 27.4884 27.991 27.2754 27.6854ZM26.4326 23.549C27.5513 23.0516 28.6574 23.1034 29.7442 23.5633C31.5032 24.3074 33.1256 25.2967 34.6845 26.3897C34.8286 26.4909 34.9717 26.5938 35.119 26.69C35.1461 26.7077 35.1918 26.6978 35.3065 26.7068C35.2667 26.1675 35.2325 25.6383 35.1863 25.1099C35.1291 24.455 35.0374 23.8023 35.0045 23.1463C34.9336 21.7119 34.9103 20.275 34.8286 18.841C34.764 17.7212 34.6314 16.6057 34.5464 15.4873C34.4982 14.8487 34.509 14.2056 34.4508 13.5682C34.3486 12.4513 34.2921 11.3247 33.9931 10.2362C33.9134 9.94636 33.7703 9.6449 33.572 9.4229C33.2581 9.07218 32.8287 9.15821 32.6314 9.57839C32.508 9.84126 32.3867 10.1193 32.3439 10.4022C32.201 11.3402 32.0836 12.282 31.977 13.2245C31.9078 13.8397 31.8743 14.4583 31.8251 15.0757C31.8132 15.2303 31.8005 15.3849 31.7934 15.5397C31.722 17.2422 31.6974 18.9484 31.3456 20.6279C31.262 21.025 31.2413 21.4343 31.1669 21.8338C31.1363 22.0013 31.0653 22.1727 30.9709 22.3157C30.8473 22.5034 30.6547 22.6249 30.4162 22.5429C30.186 22.4642 30.1238 22.2957 30.1254 22.0408C30.1368 20.1365 30.1398 18.2317 30.1173 16.3276C30.0978 14.6569 30.0845 12.9846 29.9909 11.317C29.8986 9.67146 29.8069 8.02093 29.4136 6.40536C29.2029 5.54275 28.9432 5.45263 28.2358 6.01378C27.8089 6.35292 27.5695 6.78331 27.5233 7.30519C27.45 8.1367 27.3813 8.97025 27.3652 9.80426C27.3271 11.7669 27.345 13.7312 27.2954 15.6936C27.2504 17.459 27.1493 19.2228 27.0629 20.9871C27.0468 21.3155 26.9629 21.6408 26.9418 21.9695C26.9289 22.1713 26.8917 22.3205 26.6585 22.3243C26.4474 22.328 26.2523 22.2626 26.2017 22.0367C26.1163 21.659 26.0333 21.2781 25.9922 20.8938C25.8307 19.3876 25.6806 17.8803 25.5366 16.3726C25.4088 15.0398 25.319 13.703 25.1662 12.373C25.0506 11.3713 24.8841 10.3734 24.6966 9.38203C24.5854 8.79296 24.5109 8.76141 24.1006 8.74484C23.6264 8.72577 23.3274 8.88218 23.2126 9.33732C23.0713 9.89937 22.9433 10.4803 22.9299 11.0557C22.893 12.7063 22.8877 14.3591 22.9276 16.0098C22.9509 16.9389 23.1036 17.8646 23.1689 18.7938C23.264 20.1494 23.3506 21.506 23.4049 22.8635C23.4285 23.465 23.4786 24.0536 23.642 24.6502C24.6164 24.2693 25.5407 23.9454 26.4326 23.549ZM22.7845 25.0876C23.1907 24.8938 23.2479 24.8225 23.1664 24.415C22.9865 23.5118 23.0301 22.602 23.0244 21.6924C23.0235 21.5176 23.0049 21.3423 23.0177 21.1691C23.0632 20.5535 22.5791 20.3256 21.9303 20.4402C21.647 20.4904 21.3614 20.6032 21.1105 20.7455C20.5607 21.0577 20.2052 21.4451 20.2434 22.1806C20.3098 23.4689 20.6629 24.6858 20.9195 25.9441C21.5817 25.6408 22.1876 25.3727 22.7845 25.0876Z" fill="black"/>
<path d="M74.2554 21.6289L81.2554 28.6289L74.2554 35.6289" stroke="#111827" stroke-width="2" stroke-linecap="round" stroke-linejoin="round"/>
<rect width="57.2554" height="57.2554" transform="translate(97.2554)" fill="#F6F1EB"/>
<path fill-rule="evenodd" clip-rule="evenodd" d="M128.496 22.2952C128.534 22.1821 128.591 22.0715 128.606 21.9555C128.669 21.4688 128.676 20.9707 128.785 20.4953C129.099 19.127 129.063 17.7266 129.207 16.3434C129.354 14.9413 129.401 13.5287 129.558 12.1283C129.643 11.372 129.837 10.6223 130.044 9.88695C130.129 9.58098 130.362 9.30995 130.555 9.04214C130.716 8.81984 130.926 8.8118 131.18 8.938C131.758 9.22489 132.071 9.72879 132.224 10.3023C132.528 11.4409 132.602 12.6207 132.711 13.7906C132.77 14.4356 132.749 15.0878 132.797 15.7342C132.88 16.867 133.047 17.9969 133.072 19.1305C133.11 20.8598 133.145 22.5851 133.346 24.3064C133.46 25.2782 133.48 26.2607 133.565 27.2363C133.578 27.3896 133.69 27.5514 133.795 27.6779C134.53 28.5703 134.782 29.6316 134.582 30.7162C134.443 31.4691 134.067 32.2047 133.679 32.8796C133.092 33.8998 132.401 34.86 131.755 35.8469C131.323 36.5069 130.882 37.1759 130.76 37.9676C130.514 39.5703 130.618 41.1815 130.765 42.7861C130.837 43.5661 130.997 44.3376 131.101 45.1152C131.295 46.5525 131.494 47.9885 131.652 49.4294C131.696 49.8267 131.728 50.3103 131.546 50.6278C131.24 51.163 130.783 51.6124 130.195 51.9068C129.567 52.222 128.916 52.3572 128.222 52.4425C126.691 52.6319 125.159 52.5593 123.626 52.574C123.549 52.5753 123.469 52.5579 123.394 52.536C122.32 52.2255 121.238 51.9404 120.176 51.5928C119.413 51.3432 119.299 51.105 119.373 50.3106C119.38 50.2329 119.394 50.1547 119.411 50.0779C119.728 48.6002 120.055 47.1235 120.362 45.6435C120.706 43.9888 121.009 42.3298 120.941 40.6243C120.917 40.0239 120.819 39.4515 120.547 38.917C120.279 38.3922 119.998 37.874 119.717 37.3552C118.979 35.9888 118.632 34.4918 118.297 32.9969C118.16 32.3879 118.127 31.7532 118.076 31.1279C117.99 30.0926 117.902 29.0569 117.865 28.0193C117.828 26.999 117.857 25.9763 117.851 24.9549C117.848 24.5262 117.836 24.0973 117.813 23.6688C117.779 23.0428 117.712 22.418 117.703 21.7918C117.7 21.5955 117.794 21.3594 117.921 21.2077C118.353 20.695 118.937 20.433 119.574 20.2447C120.03 20.1102 120.373 20.3631 120.761 20.4672C120.835 20.4865 120.905 20.5182 121.004 20.5546C122.08 19.5976 123.257 19.578 124.459 20.2691C124.512 20.1835 124.547 20.1525 124.548 20.1201C124.608 18.7449 124.687 17.3703 124.717 15.9942C124.762 13.8692 124.766 11.7435 124.803 9.61845C124.816 8.87203 124.877 8.12675 124.918 7.38056C124.961 6.58425 125.292 5.94611 125.958 5.48956C126.519 5.10382 127.012 5.19738 127.34 5.78703C127.472 6.02426 127.569 6.29001 127.632 6.55506C128.068 8.38077 128.162 10.2472 128.234 12.1115C128.285 13.429 128.27 14.7492 128.29 16.0678C128.313 17.542 128.348 19.0157 128.364 20.49C128.371 21.0858 128.328 21.6831 128.373 22.2768C128.414 22.2837 128.455 22.2895 128.496 22.2952ZM123.839 31.244C123.182 31.9594 122.889 32.8539 122.425 33.7727C122.193 33.2826 122.354 32.9178 122.473 32.5654C122.736 31.7863 123.229 31.15 123.78 30.5539C123.882 30.4431 123.973 30.322 124.118 30.1473C123.955 30.1316 123.866 30.1185 123.777 30.1155C123.047 30.0893 122.473 29.7905 122.182 29.1047C122.049 28.7916 121.872 28.6942 121.556 28.7126C121.203 28.7333 120.848 28.7218 120.494 28.7151C119.628 28.6988 118.999 28.2599 118.565 27.5503C118.445 27.3533 118.432 27.0604 118.449 26.817C118.476 26.4308 118.4 26.088 118.211 25.7283C118.211 26.5436 118.18 27.3223 118.218 28.0976C118.273 29.2139 118.364 30.3296 118.467 31.4426C118.525 32.0661 118.601 32.692 118.732 33.3033C118.892 34.0516 119.108 34.789 119.319 35.5258C119.602 36.5152 120.077 37.4193 120.594 38.303C120.985 38.9708 121.311 39.6744 121.346 40.4514C121.392 41.4512 121.409 42.4544 121.213 43.4495C120.818 45.4527 120.447 47.461 120.057 49.4653C119.986 49.8313 119.849 50.1839 119.777 50.5492C119.696 50.9662 119.771 51.1289 120.131 51.2374C121.163 51.5501 122.202 51.84 123.242 52.1273C123.429 52.1781 123.631 52.1919 123.825 52.1887C125.063 52.1634 126.303 52.1634 127.538 52.0825C128.334 52.0303 129.129 51.9381 129.863 51.5266C130.381 51.2361 130.768 50.8361 131.123 50.3922C131.221 50.2699 131.259 50.0609 131.248 49.897C131.196 49.1149 131.14 48.3315 131.043 47.5536C130.834 45.8794 130.548 44.213 130.39 42.5346C130.271 41.2657 130.279 39.9827 130.271 38.7062C130.263 37.5239 130.731 36.4938 131.386 35.5306C132.049 34.5555 132.73 33.5877 133.321 32.5688C133.702 31.9123 134.099 31.1916 134.196 30.4606C134.347 29.3247 134.193 28.1726 133.14 27.3993C131.583 26.2551 129.95 25.2365 128.204 24.4028C127.505 24.0692 126.784 23.7904 125.997 23.8529C125.532 23.8901 125.056 23.9789 124.618 24.1356C123.879 24.4002 123.162 24.7283 122.443 25.0462C121.58 25.4273 120.72 25.8152 119.87 26.2234C119.573 26.3664 119.283 26.5501 119.038 26.7685C118.749 27.0252 118.752 27.356 118.977 27.6708C119.261 28.0687 119.68 28.2765 120.137 28.294C121.332 28.3399 122.538 28.4192 123.701 28.0287C124.035 27.917 124.36 27.7747 124.673 27.6154C125.084 27.4066 125.085 27.3977 125.36 27.8126C125.597 28.1721 125.818 28.5448 126.083 28.8841C126.942 29.987 127.952 30.8548 129.445 30.9199C129.626 30.9279 129.626 30.9403 129.834 31.2629C129.381 31.3868 128.972 31.2971 128.57 31.1555C127.794 30.881 127.146 30.4059 126.559 29.8401C126.364 29.6509 126.173 29.4565 125.978 29.2618C125.119 29.8089 124.492 30.5318 123.839 31.244ZM125.416 7.05666C125.304 7.57159 125.264 8.10859 125.254 8.63686C125.207 10.9389 125.197 13.2416 125.145 15.5432C125.118 16.7604 125.031 17.9762 124.969 19.1925C124.928 19.9966 124.903 20.8026 124.829 21.604C124.792 22.0106 124.652 22.4065 124.577 22.8108C124.531 23.0536 124.52 23.3028 124.49 23.5911C124.659 23.5805 124.756 23.5922 124.841 23.5662C125.794 23.2791 126.719 23.4175 127.602 23.8014C129.376 24.572 131.021 25.5738 132.588 26.7046C132.728 26.8053 132.875 26.8965 133.101 27.0471C133.101 26.7082 133.117 26.445 133.098 26.1843C133.057 25.6175 132.998 25.0522 132.945 24.486C132.896 23.9591 132.845 23.4324 132.793 22.9058C132.786 22.8281 132.762 22.7508 132.759 22.6729C132.723 21.9083 132.696 21.1433 132.655 20.3789C132.571 18.7916 132.479 17.2041 132.392 15.6167C132.356 14.9512 132.345 14.2832 132.282 13.62C132.172 12.4699 132.109 11.3113 131.811 10.1879C131.76 10.0005 131.672 9.8196 131.576 9.65017C131.428 9.39018 131.194 9.26972 130.891 9.26466C130.573 9.25938 130.517 9.51891 130.424 9.72305C130.067 10.5058 129.983 11.3561 129.909 12.1924C129.783 13.6181 129.749 15.0521 129.64 16.4795C129.537 17.8073 129.399 19.1328 129.252 20.4566C129.188 21.0389 129.079 21.6187 128.955 22.1915C128.916 22.3676 128.791 22.5621 128.647 22.666C128.531 22.7488 128.31 22.7564 128.166 22.7069C128.005 22.6508 127.956 22.4936 127.956 22.2791C127.956 20.1576 127.934 18.0355 127.908 15.914C127.892 14.5961 127.869 13.2779 127.827 11.9607C127.769 10.1325 127.694 8.30422 127.258 6.51529C127.186 6.2192 127.065 5.93484 126.973 5.66082C126.161 5.76243 125.588 6.26035 125.416 7.05666ZM120.567 25.3611C121.067 25.1221 121.063 25.0772 120.988 24.5455C120.913 24.0237 120.867 23.4959 120.844 22.9692C120.82 22.4389 120.843 21.9067 120.84 21.3757C120.838 20.8288 120.426 20.453 119.896 20.5822C119.501 20.6785 119.11 20.8428 118.759 21.05C118.277 21.3359 118.038 21.7536 118.08 22.3727C118.145 23.3453 118.51 25.4821 118.821 26.1646C119.427 25.8869 120.001 25.6319 120.567 25.3611ZM124.079 23.7908C124.155 22.7212 124.232 21.6562 124.314 20.5159C123.609 20.1332 122.845 19.998 122.044 20.4474C121.976 20.4858 121.913 20.5357 121.841 20.5658C121.385 20.7578 121.219 21.0847 121.253 21.586C121.319 22.5233 121.327 23.4642 121.367 24.4032C121.373 24.557 121.421 24.709 121.462 24.9338C122.39 24.5285 123.247 24.154 124.079 23.7908ZM122.477 28.7682C122.59 29.5576 123.576 30.0027 124.21 29.5746C124.433 29.425 124.519 29.2349 124.456 28.973C124.411 28.7854 124.377 28.5956 124.334 28.3878C123.687 28.5206 123.081 28.6445 122.477 28.7682ZM125.156 28.0165C124.647 28.214 124.647 28.214 124.923 29.4245C125.194 29.2464 125.437 29.0864 125.74 28.8875C125.511 28.5455 125.33 28.2763 125.156 28.0165Z" fill="black"/>
<path d="M171.511 21.6289L178.511 28.6289L171.511 35.6289" stroke="#111827" stroke-width="2" stroke-linecap="round" stroke-linejoin="round"/>
<rect width="57.2554" height="57.2554" transform="translate(194.511)" fill="#F6F1EB"/>
<path fill-rule="evenodd" clip-rule="evenodd" d="M225.751 18.4967C225.838 17.9209 225.953 17.3477 226.008 16.7689C226.09 15.9245 226.12 15.0755 226.186 14.23C226.285 12.9644 226.373 11.697 226.51 10.4352C226.616 9.45316 226.762 8.47349 226.943 7.50234C227.035 7.01002 227.208 6.52291 227.572 6.13865C227.905 5.78632 228.066 5.75038 228.468 6.0216C228.998 6.37795 229.295 6.8925 229.428 7.51227C229.576 8.20369 229.712 8.89132 229.743 9.60402C229.783 10.5099 229.907 11.4115 229.973 12.3167C230.027 13.0413 230.009 13.7729 230.094 14.4931C230.236 15.6993 230.308 16.9062 230.29 18.1195C230.286 18.3622 230.292 18.6059 230.311 18.8476C230.392 19.8535 230.486 20.858 230.565 21.8639C230.641 22.8483 230.696 23.8346 230.784 24.8183C230.796 24.9569 230.917 25.0978 231.015 25.2146C231.781 26.1295 232.04 27.2224 231.836 28.3383C231.693 29.1132 231.304 29.8703 230.902 30.5651C230.296 31.6147 229.581 32.6027 228.913 33.6178C228.466 34.2969 228.007 34.9848 227.882 35.7994C227.628 37.4686 227.731 39.1456 227.899 40.8158C227.978 41.598 228.129 42.3729 228.235 43.1532C228.437 44.6512 228.647 46.1492 228.815 47.6521C228.859 48.0404 228.881 48.5167 228.697 48.8252C228.37 49.3729 227.905 49.8378 227.297 50.1409C226.648 50.4651 225.974 50.6042 225.256 50.6921C223.671 50.8867 222.087 50.812 220.501 50.8274C220.422 50.8286 220.339 50.8096 220.262 50.7877C219.169 50.4758 218.063 50.2015 216.99 49.8352C215.999 49.4975 216.067 49.3183 216.116 48.3764C216.118 48.336 216.134 48.2967 216.142 48.2575C216.471 46.737 216.81 45.2185 217.127 43.6956C217.476 42.013 217.792 40.3263 217.726 38.5921C217.701 37.9326 217.592 37.3085 217.289 36.7202C216.855 35.8741 216.339 35.0574 216.011 34.1721C215.578 32.9999 215.266 31.7798 214.958 30.5663C214.82 30.0231 214.804 29.4464 214.761 28.8826C214.678 27.797 214.592 26.7105 214.551 25.6225C214.512 24.5726 214.491 23.5194 214.539 22.4707C214.561 21.9812 214.55 21.5118 214.483 21.0273C214.399 20.4095 214.378 19.78 214.375 19.1557C214.375 18.9538 214.474 18.7126 214.607 18.5568C215.056 18.0316 215.66 17.7611 216.32 17.5702C216.791 17.4343 217.146 17.6967 217.548 17.8053C217.623 17.8256 217.695 17.8552 217.794 17.8892C218.965 16.8566 220.22 16.9013 221.472 17.6655C221.625 17.5589 221.728 17.4941 221.824 17.4196C222.406 16.9639 223.048 16.805 223.769 17.0171C224.138 17.1259 224.505 17.2463 224.879 17.3333C225.295 17.4295 225.478 17.7237 225.593 18.0855C225.634 18.2146 225.645 18.3529 225.67 18.4872C225.697 18.4901 225.723 18.4934 225.751 18.4967ZM222.939 26.8552C222.062 27.3877 221.424 28.1342 220.745 28.859C220.053 29.5994 219.754 30.5391 219.235 31.3724C219.019 30.6393 219.349 30.0252 219.689 29.4577C220.039 28.8744 220.509 28.3622 220.964 27.7708C220.842 27.7538 220.737 27.7301 220.632 27.7259C219.874 27.6932 219.288 27.3688 218.999 26.662C218.858 26.3182 218.644 26.273 218.336 26.2846C217.99 26.2976 217.644 26.2872 217.298 26.2856C216.402 26.2813 215.745 25.8403 215.285 25.117C215.157 24.9157 215.126 24.6147 215.147 24.3676C215.18 23.9675 215.097 23.6116 214.895 23.1754C214.895 24.0481 214.862 24.8332 214.902 25.615C214.962 26.7833 215.049 27.9517 215.169 29.1153C215.247 29.8763 215.375 30.6348 215.532 31.3837C215.668 32.0354 215.827 32.6906 216.064 33.3109C216.396 34.1759 216.71 35.0742 217.21 35.8434C218.209 37.3781 218.347 39.0409 218.085 40.7443C217.728 43.0581 217.245 45.3528 216.807 47.6536C216.739 48.0106 216.601 48.3537 216.528 48.7094C216.432 49.17 216.508 49.3398 216.911 49.4611C217.98 49.7817 219.054 50.0828 220.131 50.3727C220.361 50.4346 220.614 50.4351 220.856 50.4304C222.076 50.4041 223.297 50.3994 224.514 50.3239C225.36 50.2717 226.201 50.1691 226.976 49.738C227.512 49.4396 227.906 49.0206 228.271 48.5621C228.371 48.4363 228.399 48.2178 228.387 48.048C228.328 47.2428 228.259 46.4386 228.167 45.6384C228.038 44.5155 227.886 43.3958 227.744 42.275C227.626 41.3341 227.455 40.396 227.405 39.4516C227.349 38.3622 227.375 37.2662 227.41 36.1747C227.454 34.8337 228.199 33.7796 228.921 32.7216C229.389 32.0359 229.836 31.3357 230.307 30.6521C230.82 29.9079 231.148 29.0803 231.412 28.2295C231.504 27.9313 231.469 27.5941 231.49 27.2747C231.491 27.2555 231.479 27.2361 231.474 27.2165C231.086 25.2688 231.153 25.5159 229.427 24.2808C228.106 23.335 226.688 22.5336 225.215 21.8365C224.511 21.5031 223.782 21.2208 222.99 21.2834C222.489 21.3231 221.982 21.426 221.504 21.5828C220.869 21.7913 220.253 22.0663 219.641 22.3373C218.6 22.7975 217.566 23.2714 216.536 23.7526C216.299 23.863 216.068 24.0035 215.868 24.1709C215.416 24.5492 215.421 24.933 215.831 25.3671C216.129 25.6823 216.516 25.8384 216.919 25.8538C218.177 25.9018 219.444 25.9734 220.664 25.5556C220.989 25.4447 221.302 25.2971 221.609 25.1423C221.988 24.9514 222.038 24.9488 222.254 25.2697C222.489 25.6211 222.704 25.9879 222.956 26.3281C223.839 27.5258 224.898 28.4542 226.486 28.5516C226.735 28.5667 226.734 28.5757 226.921 28.9507C225.154 29.0311 224.051 27.9529 222.939 26.8552ZM230.303 24.4934C230.309 24.2711 230.335 24.0427 230.318 23.8176C230.198 22.2293 230.055 20.6421 229.946 19.0531C229.885 18.1671 229.893 17.2768 229.839 16.3905C229.768 15.2226 229.666 14.0566 229.58 12.8894C229.568 12.7282 229.575 12.5653 229.563 12.4042C229.486 11.4402 229.426 10.474 229.32 9.51322C229.238 8.77356 229.116 8.03651 228.971 7.30631C228.917 7.03934 228.789 6.76268 228.62 6.54939C228.283 6.12447 227.803 6.19682 227.566 6.6759C227.227 7.36022 227.124 8.10744 227.057 8.84852C226.92 10.3754 226.845 11.9076 226.725 13.4359C226.617 14.8218 226.484 16.2058 226.358 17.5901C226.329 17.9117 226.294 18.2338 226.241 18.552C226.159 19.0474 226.098 19.553 225.77 19.9701C225.721 20.0318 225.67 20.1051 225.659 20.1794C225.584 20.6331 225.522 21.089 225.46 21.5111C227.072 22.5033 228.656 23.4792 230.303 24.4934ZM217.378 22.8145C217.853 22.5863 217.852 22.527 217.779 22.011C217.703 21.4742 217.65 20.9318 217.625 20.3903C217.6 19.8452 217.624 19.2976 217.622 18.7511C217.619 18.1569 217.178 17.7805 216.602 17.9282C216.232 18.0228 215.86 18.1633 215.533 18.3567C215.022 18.6589 214.74 19.0718 214.762 19.7438C214.806 21.0916 215.193 22.3574 215.456 23.6979C216.163 23.374 216.776 23.1042 217.378 22.8145ZM225.018 21.3771C225.1 20.8651 225.204 20.4014 225.243 19.9327C225.285 19.4092 225.276 18.8802 225.276 18.3536C225.276 17.8469 225.188 17.7076 224.699 17.5613C224.332 17.4511 223.951 17.365 223.57 17.3248C222.629 17.2259 221.747 17.8672 221.59 18.8039C221.48 19.456 221.466 20.1243 221.417 20.7859C221.411 20.8568 221.457 20.9313 221.498 21.0635C222.695 20.6348 223.83 20.8777 225.018 21.3771ZM220.972 21.2208C221.051 20.1063 221.128 19.029 221.211 17.8556C220.552 17.4657 219.799 17.3494 218.994 17.7041C218.957 17.7204 218.924 17.745 218.889 17.7663C217.881 18.3737 218.057 18.181 218.065 19.1666C218.071 20.0725 218.125 20.9781 218.168 21.8833C218.176 22.0368 218.235 22.1879 218.281 22.3891C219.249 21.9692 220.136 21.5835 220.972 21.2208ZM219.313 26.3373C219.281 26.7495 219.48 27.0349 219.853 27.1612C220.133 27.2553 220.445 27.3137 220.738 27.2976C221.221 27.2711 221.423 26.9529 221.334 26.4693C221.302 26.2948 221.27 26.12 221.239 25.9474C220.589 26.0784 219.963 26.2054 219.313 26.3373ZM222.677 26.4509C222.459 26.1264 222.263 25.8358 222.072 25.553C221.562 25.7887 221.554 25.8528 221.866 27.0335C222.159 26.8235 222.397 26.6526 222.677 26.4509Z" fill="black"/>
</svg>
