<svg width="20" height="20" viewBox="0 0 20 20" fill="none" xmlns="http://www.w3.org/2000/svg">
<path d="M10 0.5C11.2476 0.5 12.4831 0.745237 13.6357 1.22266C14.7883 1.70008 15.8356 2.40008 16.7178 3.28223C17.5999 4.16437 18.2999 5.21168 18.7773 6.36426C19.2548 7.51685 19.5 8.75244 19.5 10C19.5 11.8789 18.9433 13.7161 17.8994 15.2783C16.8556 16.8405 15.3716 18.0583 13.6357 18.7773C11.8998 19.4964 9.9893 19.6839 8.14648 19.3174C6.30373 18.9508 4.61078 18.0463 3.28223 16.7178C1.95367 15.3892 1.0492 13.6963 0.682617 11.8535C0.316058 10.0107 0.5046 8.10016 1.22363 6.36426C1.94267 4.62855 3.15956 3.14438 4.72168 2.10059C6.28395 1.05671 8.12108 0.500001 10 0.5ZM13.2529 2.14746C11.6998 1.50413 9.9906 1.33514 8.3418 1.66309C6.69296 1.99106 5.178 2.80051 3.98926 3.98926C2.80051 5.178 1.99106 6.69296 1.66309 8.3418C1.33514 9.9906 1.50413 11.6998 2.14746 13.2529C2.79078 14.8059 3.87973 16.1335 5.27734 17.0674C6.67516 18.0014 8.31886 18.5 10 18.5C12.2543 18.5 14.4167 17.6048 16.0107 16.0107C17.6048 14.4167 18.5 12.2543 18.5 10C18.5 8.31886 18.0014 6.67516 17.0674 5.27734C16.1335 3.87973 14.8059 2.79078 13.2529 2.14746ZM13.4248 6.99902C13.5568 6.99902 13.6837 7.05148 13.7773 7.14453H13.7783C13.8252 7.19102 13.8623 7.24669 13.8877 7.30762C13.9131 7.36853 13.9258 7.43401 13.9258 7.5C13.9258 7.56599 13.9131 7.63147 13.8877 7.69238C13.8623 7.75331 13.8252 7.80898 13.7783 7.85547L13.7764 7.85645L8.77637 12.8564C8.68339 12.9479 8.5582 12.9995 8.42773 13H8.42676C8.36114 13.0003 8.29612 12.9877 8.23535 12.9629C8.20492 12.9505 8.17572 12.935 8.14844 12.917L8.07227 12.8555L5.72461 10.4971L5.70996 10.4834L5.69531 10.4707L5.62402 10.3955C5.60326 10.3685 5.58524 10.3394 5.57031 10.3086C5.5403 10.2466 5.52317 10.1782 5.52051 10.1094C5.51791 10.0407 5.52965 9.97219 5.55469 9.9082C5.5798 9.84411 5.61834 9.786 5.66699 9.7373C5.71567 9.68863 5.7738 9.65014 5.83789 9.625C5.90205 9.59986 5.97118 9.58816 6.04004 9.59082C6.1088 9.59351 6.17633 9.61065 6.23828 9.64062C6.30025 9.67063 6.3556 9.71333 6.40039 9.76562L6.41309 9.78027L8.43066 11.7979L8.78418 11.4434L13.0732 7.14258C13.1667 7.05036 13.2934 6.99908 13.4248 6.99902Z" fill="#01959F" stroke="#01959F"/>
</svg>
