<svg width="12" height="14" viewBox="0 0 12 14" fill="none" xmlns="http://www.w3.org/2000/svg">
<path d="M5.65723 0.5C7.02477 0.500099 8.3367 1.04373 9.30371 2.01074C10.2661 2.97339 10.8066 4.27937 10.8066 5.64062C10.8065 7.0017 10.266 8.30699 9.30371 9.26953L9.30273 9.27051L5.7627 12.8242L5.76172 12.8252C5.74636 12.8406 5.72808 12.8529 5.70801 12.8613C5.68771 12.8698 5.66555 12.874 5.64355 12.874C5.62155 12.874 5.59941 12.8698 5.5791 12.8613C5.55903 12.8529 5.54075 12.8406 5.52539 12.8252L5.52441 12.8232L2.01074 9.30371L1.83398 9.11816C0.977488 8.17227 0.500092 6.93932 0.5 5.65723C0.5 4.28954 1.04364 2.97784 2.01074 2.01074C2.97784 1.04364 4.28954 0.5 5.65723 0.5ZM5.65723 0.819336C4.70678 0.819336 3.77764 1.10195 2.9873 1.62988C2.19695 2.15785 1.58073 2.90809 1.2168 3.78613C0.852905 4.66415 0.757282 5.63026 0.942383 6.5625C1.12743 7.49434 1.58457 8.35022 2.25586 9.02246V9.02344L5.30273 12.083L5.65723 12.4385L6.01074 12.083L9.05762 9.02344C9.72922 8.35111 10.186 7.4946 10.3711 6.5625C10.5562 5.63036 10.4615 4.66408 10.0977 3.78613C9.73379 2.90825 9.1173 2.15784 8.32715 1.62988C7.53689 1.10198 6.60758 0.81941 5.65723 0.819336ZM5.69336 3.28125C6.00525 3.28385 6.3136 3.34757 6.60059 3.46973C6.8877 3.59195 7.14808 3.77003 7.36621 3.99316L7.37207 3.99902C7.59328 4.21756 7.76894 4.47824 7.8877 4.76562C8.00633 5.05279 8.06581 5.36119 8.06348 5.67188C8.05855 6.13923 7.9161 6.59493 7.65332 6.98145C7.39049 7.36802 7.01882 7.66828 6.58594 7.84473C6.15312 8.02109 5.67782 8.06533 5.21973 7.97266C4.76159 7.87995 4.34 7.65404 4.00977 7.32324C3.56558 6.87721 3.31642 6.27307 3.31641 5.64355C3.31641 5.01473 3.56455 4.41073 4.00781 3.96484L4.00879 3.96582C4.23049 3.74634 4.49324 3.57258 4.78223 3.45508C5.07131 3.33758 5.38132 3.27869 5.69336 3.28125ZM6.07715 3.62598C5.61036 3.53326 5.12543 3.60609 4.70605 3.83105C4.28681 4.05603 3.95824 4.4193 3.77734 4.85938C3.59641 5.29955 3.57393 5.78927 3.71387 6.24414C3.85381 6.69898 4.14789 7.09117 4.54492 7.35352C4.94181 7.61572 5.41754 7.73213 5.89062 7.68262C6.36391 7.63296 6.8057 7.42008 7.13965 7.08105L7.97754 6.23047H7.63281C7.69168 6.04586 7.72582 5.85247 7.73047 5.65527V5.64453C7.73148 5.16867 7.56716 4.70701 7.26562 4.33887C6.9641 3.97076 6.54385 3.71873 6.07715 3.62598Z" fill="#616161" stroke="#616161"/>
</svg>
